<svg xmlns="http://www.w3.org/2000/svg" xmlns:xlink="http://www.w3.org/1999/xlink"  viewBox="0 0 2023.736 729.019">
  <defs>
    <linearGradient id="linear-gradient" x1="0.269" y1="0.072" x2="0.742" y2="0.925" gradientUnits="objectBoundingBox">
      <stop offset="0" stop-color="#fbe7af"/>
      <stop offset="0.517" stop-color="#f65eaa"/>
      <stop offset="1" stop-color="#3a29a4"/>
    </linearGradient>
    <linearGradient id="linear-gradient-2" x1="0.5" y1="1" x2="0.5" gradientUnits="objectBoundingBox">
      <stop offset="0" stop-color="#fff" stop-opacity="0.549"/>
      <stop offset="1" stop-color="#ff0080" stop-opacity="0.549"/>
    </linearGradient>
  </defs>
  <g id="moon" transform="translate(-57.524 -1173)">
    <path id="Path_1" data-name="Path 1" d="M97.524,1537.5s225.285-2.284,371.81,53.357c88.934,33.772,145.061,135.988,188.952,137.143,115.81,3.048,124.952-137.143,124.952-137.143s57.9,105.119,326.1,73.143,201.143,0,201.143,0,323.047,44.167,201.143-39.619c-49.737-34.185.349-7.477,97.524,0,48.561,3.737,137.143-73.143,137.143-73.143s199.752-4.871,295.619-13.738c117.01-10.823,89.322-31.326,15.238-28.929-82.531,2.671-155.429,28.929-155.429,28.929-9.143,12.191-481.524-28.929-481.524-28.929-149.333-9.143-402.286-149.333-402.286-149.333-118.857,6.1-155.429,97.524-155.429,97.524-70.1-6.1-118.857,0-118.857,0-118.857-73.143-164.571,18.286-164.571,18.286C618.667,1554.286,97.524,1537.5,97.524,1537.5Z" transform="translate(-40)" fill="#f65eaa"/>
    <circle id="Ellipse_1" data-name="Ellipse 1" cx="364.5" cy="364.5" r="364.5" transform="translate(675 1173)" fill="url(#linear-gradient)"/>
    <path id="Path_2" data-name="Path 2" d="M97.524,1550.389s145.227-2.449,239.682,57.215c57.33,36.213,93.511,145.82,121.805,147.058,74.655,3.268,80.549-147.058,80.549-147.058s37.327,112.719,210.213,78.431,129.664,0,129.664,0,208.248,47.36,129.664-42.483c-32.062-36.656.225-8.018,62.867,0,31.3,4.007,88.407-78.431,88.407-78.431s128.767-5.223,190.566-14.731c75.429-11.606,57.58-33.591,9.823-31.02-53.2,2.864-100.195,31.02-100.195,31.02-5.894,13.072-310.407-31.02-310.407-31.02-96.266-9.8-259.327-160.13-259.327-160.13-76.62,6.536-100.195,104.575-100.195,104.575-45.186-6.536-76.62,0-76.62,0-76.619-78.431-106.089,19.608-106.089,19.608C433.471,1568.388,97.524,1550.389,97.524,1550.389Z" transform="translate(503 91)" fill="rgba(246,94,170,0.55)"/>
    <path id="Path_4" data-name="Path 4" d="M97.524,1473.306s81.075,1.367,133.806-31.941c32.005-20.217,52.2-81.406,68-82.1,41.677-1.824,44.968,82.1,44.968,82.1s20.839-62.927,117.355-43.785,72.387,0,72.387,0S650.3,1371.14,606.426,1421.3c-17.9,20.464.125,4.476,35.1,0,17.476-2.237,49.355,43.786,49.355,43.786s71.886,2.916,106.387,8.224c42.11,6.479,32.145,18.753,5.484,17.318-29.7-1.6-55.936-17.318-55.936-17.318-3.29-7.3-173.29,17.318-173.29,17.318-53.742,5.473-144.774,89.4-144.774,89.4-42.774-3.649-55.935-58.381-55.935-58.381-25.226,3.649-42.774,0-42.774,0-42.774,43.786-59.226-10.946-59.226-10.946C285.072,1463.258,97.524,1473.306,97.524,1473.306Z" transform="translate(295 322)" fill="rgba(58,41,164,0.55)"/>
    <path id="Path_3" data-name="Path 3" d="M97.524,1470.89s141.1-1.43,232.878,33.42c55.7,21.152,90.857,85.174,118.348,85.9,72.536,1.909,78.262-85.9,78.262-85.9s36.268,65.84,204.246,45.812,125.983,0,125.983,0,202.337,27.663,125.983-24.815c-31.152-21.411.218-4.683,61.083,0,30.416,2.341,85.9-45.812,85.9-45.812s125.112-3.051,185.157-8.6c73.288-6.779,55.946-19.621,9.544-18.119-51.692,1.673-97.351,18.119-97.351,18.119-5.726,7.635-301.6-18.119-301.6-18.119-93.533-5.726-251.966-93.533-251.966-93.533-74.445,3.818-97.351,61.083-97.351,61.083-43.9-3.818-74.445,0-74.445,0-74.445-45.812-103.077,11.453-103.077,11.453C423.935,1481.4,97.524,1470.89,97.524,1470.89Z" transform="translate(338 63)" fill="rgba(246,94,170,0.55)"/>
    <path id="Path_5" data-name="Path 5" d="M97.524,1478.586s141.1,1.43,232.878-33.42c55.7-21.152,90.857-85.174,118.348-85.9,72.536-1.909,78.262,85.9,78.262,85.9s36.268-65.84,204.246-45.812,125.983,0,125.983,0,202.337-27.663,125.983,24.815c-31.152,21.411.218,4.683,61.083,0,30.416-2.341,85.9,45.812,85.9,45.812s125.112,3.051,185.157,8.6c73.288,6.779,55.946,19.621,9.544,18.119-51.692-1.673-97.351-18.119-97.351-18.119-5.726-7.635-301.6,18.119-301.6,18.119-93.533,5.726-251.966,93.533-251.966,93.533-74.445-3.818-97.351-61.083-97.351-61.083-43.9,3.818-74.445,0-74.445,0C427.753,1574.967,399.12,1517.7,399.12,1517.7,423.935,1468.072,97.524,1478.586,97.524,1478.586Z" transform="translate(338 -25)" fill="url(#linear-gradient-2)"/>
    <path id="Path_6" data-name="Path 6" d="M97.524,1436.613s91.48.927,150.978-21.667c36.113-13.713,58.9-55.219,76.726-55.688,47.026-1.237,50.738,55.688,50.738,55.688s23.513-42.685,132.415-29.7,81.677,0,81.677,0,131.177-17.934,81.677,16.088c-20.2,13.881.142,3.036,39.6,0,19.719-1.517,55.689,29.7,55.689,29.7s81.112,1.978,120.04,5.579c47.513,4.395,36.27,12.72,6.188,11.747-33.513-1.084-63.114-11.747-63.114-11.747-3.713-4.95-195.529,11.747-195.529,11.747C573.97,1452.072,471.256,1509,471.256,1509c-48.263-2.475-63.114-39.6-63.114-39.6-28.463,2.475-48.263,0-48.263,0-48.263,29.7-66.826-7.425-66.826-7.425C309.14,1429.8,97.524,1436.613,97.524,1436.613Z" transform="translate(671 -75.38)" fill="url(#linear-gradient-2)"/>
  </g>
</svg>
